<svg width="1060" height="1060" viewBox="0 0 1060 1060" fill="none" xmlns="http://www.w3.org/2000/svg">
<g clip-path="url(#clip0_1167_5885)">
<g style="mix-blend-mode:luminosity">
<path d="M29.7706 690.05C63.5902 794.902 129.537 886.5 218.262 951.862C306.98 1017.22 413.987 1053.04 524.109 1054.23L526.599 1054.23L529.174 1054.23L534.158 1054.24C638.647 1053.85 738.651 1011.98 812.161 937.824C885.671 863.669 926.671 763.306 926.139 658.814C925.611 554.325 883.592 454.265 809.332 380.65C735.077 307.031 634.654 265.89 530.161 266.269C599.924 266.627 666.733 294.64 715.933 344.163C765.137 393.689 792.711 460.679 792.614 530.438C792.513 600.201 764.75 667.034 715.409 716.278C666.068 765.523 599.182 793.161 529.42 793.125L527.143 793.08C424.157 791.275 325.918 749.207 253.472 675.891C181.026 602.574 140.139 503.839 139.562 400.842C138.99 297.848 178.777 198.779 250.405 124.862C322.034 50.9525 419.797 8.0707 522.759 5.41123C440.642 6.3098 359.903 26.4693 287.05 64.274C214.192 102.075 151.256 156.469 103.297 223.068C55.3418 289.672 23.7022 366.619 10.9328 447.729C-1.83666 528.838 4.61854 611.838 29.7706 690.05Z" fill="#e8acac"/>
<path d="M530.496 793.384L528.728 793.356C529.171 793.388 529.614 793.388 530.061 793.352L530.496 793.384Z" fill="url(#paint0_linear_1167_5885)"/>
<path d="M532.481 11.9401L531.579 11.9805L534.451 11.9683L532.481 11.9401Z" fill="url(#paint1_linear_1167_5885)"/>
<path d="M132.128 399.108C132.067 503.33 173.362 603.375 246.948 677.284C320.539 751.197 420.406 792.926 524.629 793.325C455.346 792.584 389.113 764.583 340.263 715.387C291.418 666.187 263.888 599.756 263.638 530.473C263.393 461.194 290.447 394.643 338.946 345.241C387.441 295.836 453.476 267.549 522.747 266.513L523.263 266.513L525.797 266.469L529.794 266.517C634.275 266.392 734.589 307.779 808.664 381.571C882.742 455.368 924.507 555.52 924.781 660.005C925.055 764.49 883.814 864.748 810.126 938.717C736.439 1012.69 636.342 1054.32 531.858 1054.44C670.944 1054.63 804.332 999.546 902.672 901.328C1001.01 803.109 1056.25 669.789 1056.24 530.703C1056.22 391.617 1000.95 258.152 902.599 159.675C804.239 61.1944 670.843 5.76874 531.757 5.57933C530.854 5.53902 529.947 5.4947 529.049 5.53902L525.656 5.49069L524.496 5.531C522.993 5.48667 521.49 5.53108 519.983 5.57135L518.008 5.57135C414.906 7.53373 316.739 49.8434 244.591 123.426C172.439 197.004 132.063 295.985 132.128 399.108Z" fill="#edbfbf"/>
</g>
</g>
<defs>
<linearGradient id="paint0_linear_1167_5885" x1="583.838" y1="473.848" x2="433.567" y2="476.271" gradientUnits="userSpaceOnUse">
<stop stop-color="#009DAB" stop-opacity="0"/>
<stop offset="1" stop-color="#009DAB"/>
</linearGradient>
<linearGradient id="paint1_linear_1167_5885" x1="126.532" y1="20.0233" x2="827.745" y2="10.0521" gradientUnits="userSpaceOnUse">
<stop offset="0.24" stop-color="#009DAB" stop-opacity="0"/>
<stop offset="1" stop-color="#009DAB"/>
</linearGradient>
<clipPath id="clip0_1167_5885">
<rect width="1060" height="1060" fill="white"/>
</clipPath>
</defs>
</svg>
