<svg width="100" height="100" viewBox="0 0 100 100" fill="none" xmlns="http://www.w3.org/2000/svg">
<path d="M50 6.25C40.414 6.25 26.782 9.50054 19.5557 11.3403C15.4157 12.394 12.5 16.1588 12.5 20.4224V40.625C12.5 56.0915 21.6743 69.196 30.5542 78.4424C39.4341 87.6888 48.3398 93.2739 48.3398 93.2739L50.0244 94.3237L51.6846 93.2495C51.6846 93.2495 60.5744 87.5402 69.4458 78.2349C78.3172 68.9296 87.5 55.8527 87.5 40.625V20.4224C87.5 16.1575 84.5857 12.4029 80.4565 11.3403H80.4443C73.2183 9.50054 59.586 6.25 50 6.25ZM50 12.5C58.0857 12.5 71.8303 15.597 78.894 17.395C80.3024 17.7574 81.25 18.9748 81.25 20.4224V40.625C81.25 53.2848 73.2453 65.2029 64.9292 73.9258C57.45 81.7708 51.4148 85.6344 49.9878 86.5845C48.5626 85.6568 42.5422 81.9008 35.0708 74.1211C26.7632 65.4706 18.75 53.571 18.75 40.625V20.4224C18.75 18.9609 19.6837 17.7539 21.0938 17.395C28.1549 15.5973 41.911 12.5 50 12.5ZM72.7905 26.6968L46.0938 53.3936L31.897 39.1968L27.478 43.6157L46.0938 62.2314L77.2095 31.1157L72.7905 26.6968Z" fill="#101828"/>
</svg>
