<svg width="100" height="100" viewBox="0 0 100 100" fill="none" xmlns="http://www.w3.org/2000/svg">
<path d="M62.5 6.25V12.8418C60.5225 13.2568 58.6914 14.0625 57.0801 15.1367L52.3682 10.4492L47.9492 14.8682L52.6367 19.5557C51.5381 21.1914 50.7324 23.0225 50.3174 25H43.75V31.25H50.3174C50.7324 33.252 51.5625 35.0586 52.6367 36.6943L47.9492 41.3818L52.3682 45.8008L57.0557 41.1133C58.6914 42.1875 60.5225 42.9932 62.5 43.4082V50H68.75V43.4326C70.752 43.0176 72.583 42.2363 74.2188 41.1377L78.8819 45.8008L83.3008 41.3818L78.6377 36.7188C79.7363 35.083 80.5176 33.2275 80.9326 31.25H87.5V25H80.9326C80.5176 22.9981 79.7363 21.167 78.6377 19.5312L83.3008 14.8682L78.8819 10.4492L74.2188 15.1123C72.583 14.0137 70.7276 13.2324 68.75 12.8174V6.25H62.5ZM65.625 18.75C70.8496 18.75 75 22.9004 75 28.125C75 33.3496 70.8496 37.5 65.625 37.5C60.4004 37.5 56.25 33.3496 56.25 28.125C56.25 22.9004 60.4004 18.75 65.625 18.75ZM31.25 50C27.8076 50 24.1211 50.9277 24.1211 50.9277C23.999 50.9522 23.877 50.9766 23.7793 51.0254L8.34962 56.4209C6.71388 56.9824 5.85939 58.7402 6.3965 60.3516L12.6465 79.1016C12.9395 79.9316 13.5254 80.5908 14.3067 80.957C15.0879 81.3232 15.9912 81.3477 16.7969 81.0303L31.1035 75.293L50.9766 85.083L50.6104 84.8877C55.1758 87.915 61.0108 88.3301 65.9668 85.9863C66.1133 85.9131 66.2598 85.8398 66.3819 85.7422L92.3828 68.2129L94.9463 66.4795L91.4795 61.2793L88.8672 63.0371L63.2324 80.3467C60.2539 81.7139 56.8115 81.4941 54.0772 79.6875C53.9551 79.6143 53.8574 79.541 53.711 79.4922L32.6172 69.0674C31.836 68.6768 30.9082 68.6523 30.0781 68.9697L17.5293 73.999L13.3301 61.3037L25.6348 56.9824C25.7813 56.958 29.1016 56.25 31.25 56.25C34.1309 56.25 35.6934 56.3477 38.6963 58.6914C44.0674 62.9395 46.46 65.4541 50.1221 67.0166C53.7842 68.6035 57.7637 68.75 65.625 68.75H68.75V62.5H65.625C57.8613 62.5 54.8096 62.2559 52.6123 61.2793C50.4151 60.3272 48.1201 58.1543 42.5537 53.8086C38.5254 50.6348 34.6192 50 31.25 50Z" fill="#101828"/>
</svg>
