<svg width="414" height="242" viewBox="0 0 414 242" fill="none" xmlns="http://www.w3.org/2000/svg">
<ellipse cx="208" cy="232.5" rx="110" ry="8.5" fill="#EAECF0"/>
<path d="M9.81463 168.432V144.213L70.5391 48.5455H91.4197V82.0682H79.0618L40.7805 142.651V143.787H127.073V168.432H9.81463ZM79.63 194V161.045L80.1982 150.321V48.5455H109.033V194H79.63Z" fill="#98A2B3"/>
<path d="M287.815 168.432V144.213L348.539 48.5455H369.42V82.0682H357.062L318.781 142.651V143.787H405.073V168.432H287.815ZM357.63 194V161.045L358.198 150.321V48.5455H387.033V194H357.63Z" fill="#98A2B3"/>
<path d="M206.681 51C181.641 51 159.629 63.9618 146.988 83.5417L161.193 95.6429L168.377 108.589L188.086 109.321L206.681 101.5L222.5 103.5L227.389 96.3334L242.026 93.7977L248.097 87.3036L268.182 86.5C255.906 65.2781 232.961 51 206.681 51Z" fill="white" stroke="#98A2B3" stroke-width="2"/>
<path d="M136 122.001C136 161.213 167.788 193.001 207 193.001C220.675 193.001 233.448 189.135 244.284 182.436L242.5 166.376L230.357 164.263L222.637 149.358L209.804 146.823L199.506 134.257L181.643 120.465L165.583 117.775L158.821 104.251L143.45 90.3047C138.683 99.8454 136 110.61 136 122.001Z" fill="white" stroke="#98A2B3" stroke-width="2"/>
<path d="M278 122.002C278 110.442 275.237 99.5278 270.336 89.8828L251.952 92.8411L246.889 100.758L231.244 102.294L227.286 111.323L208.268 110.055L184.601 115.24L206.619 130.454L213.917 140.597L228.018 143.823L235.47 159.038L247.458 162.573L248.889 180.746C267.667 167.97 278 146.426 278 122.002Z" fill="white" stroke="#98A2B3" stroke-width="2"/>
<path d="M155.996 91.9928C166.285 74.5411 185.275 62.832 207 62.832C226.582 62.832 243.941 72.3443 254.71 87M152.574 98.7547C149.523 105.89 147.833 113.747 147.833 121.999C147.833 154.676 174.323 181.165 207 181.165C220.32 181.165 232.612 176.764 242.5 169.336M258.251 92.4154C263.286 101.118 266.167 111.222 266.167 121.999C266.167 138.759 259.198 153.892 248 164.657" stroke="#98A2B3" stroke-width="2"/>
</svg>
