<svg width="30" height="30" viewBox="0 0 30 30" fill="none" xmlns="http://www.w3.org/2000/svg">
<path d="M16.351 1.21279C16.2894 0.532846 15.7156 3.5658e-05 15.0169 3.5658e-05C14.277 3.5658e-05 13.6772 0.597374 13.6772 1.33423V13.1559L1.33961 13.1504L1.21768 13.1558C0.534977 13.2172 0 13.7887 0 14.4846C0 15.2214 0.599766 15.8188 1.33961 15.8188L13.6772 15.8243V28.6658L13.6827 28.7873C13.7443 29.4672 14.3181 30 15.0169 30C15.7567 30 16.3565 29.4027 16.3565 28.6658V15.8243L28.6604 15.8298L28.7823 15.8244C29.465 15.763 30 15.1915 30 14.4956C30 13.7588 29.4002 13.1614 28.6604 13.1614L16.3565 13.1559L16.3565 1.33423L16.351 1.21279Z" fill="#202124"/>
</svg>
