<svg width="340" height="340" viewBox="0 0 340 340" fill="none" xmlns="http://www.w3.org/2000/svg">
<path d="M340.007 90.6667V317.333C340.007 323.345 337.618 329.111 333.367 333.362C329.117 337.613 323.35 340 317.34 340H90.6684C66.6208 340 43.5601 330.449 26.5566 313.445C9.55313 296.442 0 273.381 0 249.333V90.6667C0 66.6208 9.55313 43.5601 26.5566 26.5566C43.5601 9.55312 66.6208 0 90.6684 0H249.339C273.384 0 296.447 9.55312 313.45 26.5566C330.454 43.5601 340.007 66.6208 340.007 90.6667Z" fill="#BD1313"/>
<path fill-rule="evenodd" clip-rule="evenodd" d="M126.769 109.027C130.644 89.7479 147.672 75.229 168.091 75.229C188.51 75.229 205.538 89.7479 209.412 109.027C211.286 109.076 213.02 109.154 214.62 109.28C219.026 109.625 223.082 110.366 226.96 112.205C233.003 115.075 238.058 119.677 241.478 125.427C243.672 129.115 244.79 133.085 245.544 137.439C246.268 141.616 246.749 146.751 247.33 152.95L252.453 207.592C253.143 214.952 253.711 221.002 253.755 225.934C253.802 231.04 253.317 235.774 251.384 240.275C248.402 247.213 243.177 252.951 236.548 256.568C232.246 258.913 227.579 259.837 222.491 260.267C217.576 260.684 211.499 260.682 204.106 260.682H132.075C124.684 260.682 118.608 260.684 113.691 260.267C108.605 259.837 103.935 258.913 99.6357 256.568C93.0048 252.951 87.7792 247.213 84.7994 240.275C82.8658 235.774 82.3811 231.04 82.4264 225.934C82.4718 221.002 83.0384 214.952 83.7289 207.592L88.8515 152.95C89.4322 146.751 89.9134 141.616 90.6387 137.439C91.3937 133.085 92.5096 129.115 94.703 125.427C98.124 119.677 103.179 115.075 109.222 112.205C113.1 110.366 117.155 109.625 121.561 109.28C123.162 109.154 124.895 109.076 126.769 109.027ZM144.24 108.948C147.712 99.1249 157.08 92.0878 168.091 92.0878C179.102 92.0878 188.47 99.1249 191.941 108.948H144.24Z" fill="white"/>
<path d="M159.697 147.349C156.853 147.349 154.545 149.653 154.545 152.502V178.258H149.394V152.502C149.394 149.653 147.086 147.349 144.242 147.349C141.398 147.349 139.091 149.653 139.091 152.502V178.258H133.939V152.502C133.939 149.653 131.632 147.349 128.789 147.349C125.945 147.349 123.636 149.653 123.636 152.502V183.41C123.636 186.259 125.945 188.561 128.789 188.561H139.091V224.622C139.091 227.471 141.398 229.774 144.242 229.774C147.086 229.774 149.394 227.471 149.394 224.622V188.561H159.697C162.541 188.561 164.849 186.259 164.849 183.41V152.502C164.849 149.653 162.541 147.349 159.697 147.349ZM195.758 147.349C195.758 147.349 185.455 150.673 185.455 162.805V173.108C185.455 179.829 189.767 185.487 195.758 187.614V224.622C195.758 227.471 198.065 229.774 200.909 229.774C203.752 229.774 206.061 227.471 206.061 224.622V147.349H195.758Z" fill="#BD1313"/>
</svg>
