<svg width="30" height="31" viewBox="0 0 30 31" fill="none" xmlns="http://www.w3.org/2000/svg">
<path d="M8.24854 22.1655C12.9053 26.8223 18.561 30.4155 23.1855 30.4155C25.2642 30.4155 27.085 29.6904 28.5513 28.0791C29.4053 27.1284 29.937 26.0166 29.937 24.9209C29.937 24.1152 29.6309 23.3418 28.8735 22.7939L23.9268 19.2812C23.1694 18.7656 22.541 18.5078 21.9609 18.5078C21.2358 18.5078 20.5752 18.9268 19.834 19.6519L18.6899 20.7798C18.5127 20.957 18.2871 21.0376 18.0776 21.0376C17.8359 21.0376 17.5942 20.9409 17.4331 20.8604C16.4341 20.3286 14.7261 18.8623 13.1309 17.2832C11.5518 15.7041 10.0854 13.9961 9.56982 12.9971C9.48926 12.8198 9.39258 12.5942 9.39258 12.3525C9.39258 12.1431 9.45703 11.9336 9.63428 11.7563L10.7783 10.5801C11.4873 9.83887 11.9224 9.19434 11.9224 8.45312C11.9224 7.87305 11.6484 7.24463 11.1167 6.4873L7.65234 1.60498C7.08838 0.831543 6.29883 0.493164 5.42871 0.493164C4.36523 0.493164 3.26953 0.976562 2.31885 1.89502C0.755859 3.39355 0.0629883 5.24658 0.0629883 7.29297C0.0629883 11.9175 3.5918 17.5249 8.24854 22.1655Z" fill="white"/>
</svg>
