<svg width="120" height="120" viewBox="0 0 120 120" fill="none" xmlns="http://www.w3.org/2000/svg">
<path fill-rule="evenodd" clip-rule="evenodd" d="M38.7876 48.7875L58.7541 62.6112C59.1482 62.5426 59.5527 62.5047 59.9649 62.5C64.1249 62.4525 67.4874 65.77 67.4999 69.9175C67.4874 74.065 64.1474 77.4625 59.9999 77.4975C55.8649 77.5575 52.4999 74.2175 52.4999 70.08C52.4974 69.6271 52.5352 69.1834 52.6099 68.752L38.7876 48.7875ZM60.0125 72.5C58.63 72.5225 57.5125 71.415 57.5 70.04C57.4875 68.655 58.6175 67.5225 60 67.5025C61.37 67.49 62.5 68.5975 62.5 69.9725C62.5125 71.3575 61.3825 72.4875 60.0125 72.5Z" fill="white"/>
<path fill-rule="evenodd" clip-rule="evenodd" d="M72.5001 17.5V7.5C72.5001 6.12 71.3801 5 70.0001 5H50.0001C48.6201 5 47.5001 6.12 47.5001 7.5V17.5C47.5001 18.88 48.6201 20 50.0001 20H52.5V25.6224C31.2191 29.1937 15 47.7053 15 70C15 94.85 35.15 115 60 115C84.85 115 105 94.85 105 70C105 58.6565 100.801 48.2923 93.8734 40.3771L96.8625 36.72C97.855 35.505 97.665 33.725 96.4375 32.7425L87.55 25.6275C86.3225 24.645 84.525 24.8325 83.53 26.0475L80.4015 29.8808C76.4082 27.8458 72.0709 26.3895 67.5 25.6224V20H70.0001C71.3801 20 72.5001 18.88 72.5001 17.5ZM25 70C25 89.33 40.67 105 60 105C79.33 105 95 89.33 95 70C95 50.67 79.33 35 60 35C40.67 35 25 50.67 25 70Z" fill="white"/>
<path fill-rule="evenodd" clip-rule="evenodd" d="M38.7876 48.7875L58.7541 62.6112C59.1482 62.5426 59.5527 62.5047 59.9649 62.5C64.1249 62.4525 67.4874 65.77 67.4999 69.9175C67.4874 74.065 64.1474 77.4625 59.9999 77.4975C55.8649 77.5575 52.4999 74.2175 52.4999 70.08C52.4974 69.6271 52.5352 69.1834 52.6099 68.752L38.7876 48.7875ZM60.0125 72.5C58.63 72.5225 57.5125 71.415 57.5 70.04C57.4875 68.655 58.6175 67.5225 60 67.5025C61.37 67.49 62.5 68.5975 62.5 69.9725C62.5125 71.3575 61.3825 72.4875 60.0125 72.5Z" fill="url(#paint0_linear_1516_9266)"/>
<path fill-rule="evenodd" clip-rule="evenodd" d="M72.5001 17.5V7.5C72.5001 6.12 71.3801 5 70.0001 5H50.0001C48.6201 5 47.5001 6.12 47.5001 7.5V17.5C47.5001 18.88 48.6201 20 50.0001 20H52.5V25.6224C31.2191 29.1937 15 47.7053 15 70C15 94.85 35.15 115 60 115C84.85 115 105 94.85 105 70C105 58.6565 100.801 48.2923 93.8734 40.3771L96.8625 36.72C97.855 35.505 97.665 33.725 96.4375 32.7425L87.55 25.6275C86.3225 24.645 84.525 24.8325 83.53 26.0475L80.4015 29.8808C76.4082 27.8458 72.0709 26.3895 67.5 25.6224V20H70.0001C71.3801 20 72.5001 18.88 72.5001 17.5ZM25 70C25 89.33 40.67 105 60 105C79.33 105 95 89.33 95 70C95 50.67 79.33 35 60 35C40.67 35 25 50.67 25 70Z" fill="url(#paint1_linear_1516_9266)"/>
<defs>
<linearGradient id="paint0_linear_1516_9266" x1="21.8571" y1="26.1429" x2="98.809" y2="93.2468" gradientUnits="userSpaceOnUse">
<stop stop-color="#D0D5DD"/>
<stop offset="0.71409" stop-color="white" stop-opacity="0"/>
</linearGradient>
<linearGradient id="paint1_linear_1516_9266" x1="21.8571" y1="26.1429" x2="98.809" y2="93.2468" gradientUnits="userSpaceOnUse">
<stop stop-color="#D0D5DD"/>
<stop offset="0.71409" stop-color="white" stop-opacity="0"/>
</linearGradient>
</defs>
</svg>
