<svg width="28" height="25" viewBox="0 0 28 25" fill="none" xmlns="http://www.w3.org/2000/svg">
<path d="M24.9801 12.5112C24.9801 17.4143 21.0191 21.3891 16.133 21.3891C11.2469 21.3891 7.28588 17.4143 7.28588 12.5112C7.28588 7.60811 11.2469 3.63336 16.133 3.63336C21.0191 3.63336 24.9801 7.60811 24.9801 12.5112Z" fill="#2C2C2E"/>
<path d="M24.1019 24.5C25.3969 24.5 26.3703 24.1729 27.0222 23.5188C27.6741 22.8735 28 21.9099 28 20.6282V4.37182C28 3.09006 27.6741 2.12652 27.0222 1.48122C26.3703 0.827072 25.3969 0.5 24.1019 0.5H12.8042C12.302 0.5 11.8351 0.544199 11.4035 0.632597C10.9718 0.712155 10.5622 0.858011 10.1746 1.07017C9.78701 1.27348 9.42143 1.55193 9.07787 1.90552L1.1496 10.1C0.885323 10.374 0.665094 10.6436 0.48891 10.9088C0.321535 11.1652 0.198207 11.4215 0.118924 11.6779C0.0396413 11.9343 0 12.195 0 12.4602C0 12.858 0.0924965 13.2514 0.277489 13.6403C0.462482 14.0293 0.753185 14.4315 1.1496 14.847L9.09108 22.9221C9.43464 23.2757 9.79582 23.5674 10.1746 23.7972C10.5622 24.0271 10.9718 24.1994 11.4035 24.3144C11.844 24.4293 12.3152 24.4867 12.8174 24.4867L24.1019 24.5ZM11.681 18.0823C11.4431 18.0823 11.2405 18.0028 11.0731 17.8436C10.9146 17.6757 10.8353 17.4724 10.8353 17.2337C10.8353 16.995 10.919 16.7917 11.0864 16.6238L15.1826 12.5133L11.0864 8.40276C10.919 8.23481 10.8353 8.03149 10.8353 7.79282C10.8353 7.55414 10.9146 7.35525 11.0731 7.19613C11.2405 7.03702 11.4431 6.95746 11.681 6.95746C11.9276 6.95746 12.1302 7.04586 12.2888 7.22265L16.3851 11.3199L20.5078 7.20939C20.6752 7.0326 20.8734 6.9442 21.1024 6.9442C21.3403 6.9442 21.5385 7.02818 21.697 7.19613C21.8644 7.35525 21.9481 7.54972 21.9481 7.77956C21.9481 8.00939 21.8644 8.21271 21.697 8.3895L17.5875 12.5133L21.6838 16.6105C21.8512 16.7961 21.9349 17.0039 21.9349 17.2337C21.9349 17.4724 21.8512 17.6757 21.6838 17.8436C21.5252 18.0028 21.327 18.0823 21.0892 18.0823C20.8602 18.0823 20.6531 17.9939 20.4681 17.8171L16.3851 13.7199L12.3152 17.8171C12.1391 17.9939 11.9276 18.0823 11.681 18.0823Z" fill="#E5E5E5"/>
</svg>
