<svg width="23" height="24" viewBox="0 0 23 24" fill="none" xmlns="http://www.w3.org/2000/svg">
<path d="M9.04416 9.86726C9.58474 9.86726 10.0286 10.2811 10.0763 10.8093L10.0805 10.9036V17.4818C10.0805 18.0542 9.61654 18.5182 9.04416 18.5182C8.50359 18.5182 8.05968 18.1043 8.01203 17.5761L8.00779 17.4818V10.9036C8.00779 10.3313 8.47179 9.86726 9.04416 9.86726Z" fill="#F04438"/>
<path d="M14.4618 10.8093C14.4141 10.2811 13.9702 9.86726 13.4296 9.86726C12.8572 9.86726 12.3932 10.3313 12.3932 10.9036V17.4818L12.3975 17.5761C12.4451 18.1043 12.889 18.5182 13.4296 18.5182C14.002 18.5182 14.466 18.0542 14.466 17.4818V10.9036L14.4618 10.8093Z" fill="#F04438"/>
<path fill-rule="evenodd" clip-rule="evenodd" d="M13.4296 0C15.1661 0 16.5824 1.37063 16.6557 3.08903L16.6587 3.2291V4.38545H21.1042C21.6765 4.38545 22.1405 4.84945 22.1405 5.42182C22.1405 5.9624 21.7267 6.40631 21.1985 6.45396L21.1042 6.4582H19.9478V20.7709C19.9478 22.5074 18.5772 23.9237 16.8588 23.997L16.7187 24H5.75508C4.01863 24 2.6023 22.6294 2.52896 20.911L2.52598 20.7709V6.4582H1.36963C0.797252 6.4582 0.333252 5.9942 0.333252 5.42182C0.333252 4.88125 0.747129 4.43734 1.27529 4.38969L1.36963 4.38545H5.81506V3.2291C5.81506 1.49265 7.18569 0.0763242 8.90409 0.00298337L9.04416 0H13.4296ZM4.59873 6.4582V20.7709C4.59873 21.3776 5.06596 21.8752 5.66024 21.9234L5.75508 21.9273H16.7187C17.3254 21.9273 17.823 21.46 17.8712 20.8657L17.8751 20.7709V6.4582H4.59873ZM14.586 4.38545H7.88781V3.2291L7.89165 3.13426C7.93989 2.53999 8.43746 2.07275 9.04416 2.07275H13.4296L13.5245 2.07658C14.1187 2.12482 14.586 2.6224 14.586 3.2291V4.38545Z" fill="#F04438"/>
</svg>
