<svg width="26" height="26" viewBox="0 0 26 26" fill="none" xmlns="http://www.w3.org/2000/svg">
<path d="M2.50334 8.38449H5.35351C6.78487 8.38449 7.62611 7.53069 7.62611 6.04911V3.31194C7.62611 1.84291 6.78487 0.976562 5.35351 0.976562H2.50334C1.08454 0.976562 0.230743 1.84291 0.230743 3.31194V6.04911C0.230743 7.53069 1.08454 8.38449 2.50334 8.38449ZM11.5686 8.38449H14.4062C15.8376 8.38449 16.6914 7.53069 16.6914 6.04911V3.31194C16.6914 1.84291 15.8376 0.976562 14.4062 0.976562H11.5686C10.1373 0.976562 9.28348 1.84291 9.28348 3.31194V6.04911C9.28348 7.53069 10.1373 8.38449 11.5686 8.38449ZM20.6465 8.38449H23.4966C24.9155 8.38449 25.7692 7.53069 25.7692 6.04911V3.31194C25.7692 1.84291 24.9155 0.976562 23.4966 0.976562H20.6465C19.2151 0.976562 18.3613 1.84291 18.3613 3.31194V6.04911C18.3613 7.53069 19.2151 8.38449 20.6465 8.38449ZM2.80468 6.45089C2.37779 6.45089 2.17689 6.22489 2.17689 5.77288V3.57561C2.17689 3.14872 2.37779 2.92271 2.80468 2.92271H5.05217C5.46651 2.92271 5.70507 3.14872 5.70507 3.57561V5.77288C5.70507 6.22489 5.46651 6.45089 5.05217 6.45089H2.80468ZM20.9353 6.45089C20.5209 6.45089 20.2949 6.22489 20.2949 5.77288V3.57561C20.2949 3.14872 20.5209 2.92271 20.9353 2.92271H23.1828C23.6096 2.92271 23.8231 3.14872 23.8231 3.57561V5.77288C23.8231 6.22489 23.6096 6.45089 23.1828 6.45089H20.9353ZM2.50334 17.1861H5.35351C6.78487 17.1861 7.62611 16.3449 7.62611 14.8758V12.1136C7.62611 10.6445 6.78487 9.80329 5.35351 9.80329H2.50334C1.08454 9.80329 0.230743 10.6445 0.230743 12.1136V14.8758C0.230743 16.3449 1.08454 17.1861 2.50334 17.1861ZM11.5686 17.1861H14.4188C15.8502 17.1861 16.6914 16.3449 16.6914 14.8758V12.1136C16.6914 10.6445 15.8502 9.80329 14.4188 9.80329H11.5686C10.1373 9.80329 9.29603 10.6445 9.29603 12.1136V14.8758C9.29603 16.3449 10.1373 17.1861 11.5686 17.1861ZM20.6465 17.1861H23.4966C24.9155 17.1861 25.7692 16.3449 25.7692 14.8758V12.1136C25.7692 10.6445 24.9155 9.80329 23.4966 9.80329H20.6465C19.2151 9.80329 18.3613 10.6445 18.3613 12.1136V14.8758C18.3613 16.3449 19.2151 17.1861 20.6465 17.1861ZM2.80468 15.2525C2.37779 15.2525 2.17689 15.0265 2.17689 14.5871V12.3898C2.17689 11.9503 2.37779 11.7243 2.80468 11.7243H5.05217C5.46651 11.7243 5.70507 11.9503 5.70507 12.3898V14.5871C5.70507 15.0265 5.46651 15.2525 5.05217 15.2525H2.80468ZM11.8574 15.2525C11.4431 15.2525 11.2296 15.0265 11.2296 14.5871V12.3898C11.2296 11.9503 11.4431 11.7243 11.8574 11.7243H14.1175C14.5318 11.7243 14.7578 11.9503 14.7578 12.3898V14.5871C14.7578 15.0265 14.5318 15.2525 14.1175 15.2525H11.8574ZM20.9353 15.2525C20.5209 15.2525 20.2949 15.0265 20.2949 14.5871V12.3898C20.2949 11.9503 20.5209 11.7243 20.9353 11.7243H23.1828C23.6096 11.7243 23.8231 11.9503 23.8231 12.3898V14.5871C23.8231 15.0265 23.6096 15.2525 23.1828 15.2525H20.9353ZM2.50334 26.0003H5.35351C6.78487 26.0003 7.62611 25.1465 7.62611 23.6775V20.9277C7.62611 19.4587 6.78487 18.6049 5.35351 18.6049H2.50334C1.08454 18.6049 0.230743 19.4587 0.230743 20.9277V23.6775C0.230743 25.1465 1.08454 26.0003 2.50334 26.0003ZM11.5686 26.0003H14.4188C15.8502 26.0003 16.6914 25.1465 16.6914 23.6775V20.9277C16.6914 19.4587 15.8502 18.6049 14.4188 18.6049H11.5686C10.1373 18.6049 9.29603 19.4587 9.29603 20.9277V23.6775C9.29603 25.1465 10.1373 26.0003 11.5686 26.0003ZM20.6465 26.0003H23.4966C24.9155 26.0003 25.7692 25.1465 25.7692 23.6775V20.9277C25.7692 19.4587 24.9155 18.6049 23.4966 18.6049H20.6465C19.2151 18.6049 18.3613 19.4587 18.3613 20.9277V23.6775C18.3613 25.1465 19.2151 26.0003 20.6465 26.0003ZM2.80468 24.0667C2.37779 24.0667 2.17689 23.8407 2.17689 23.3887V21.204C2.17689 20.7645 2.37779 20.5385 2.80468 20.5385H5.05217C5.46651 20.5385 5.70507 20.7645 5.70507 21.204V23.3887C5.70507 23.8407 5.46651 24.0667 5.05217 24.0667H2.80468ZM11.8574 24.0667C11.4431 24.0667 11.2296 23.8407 11.2296 23.3887V21.204C11.2296 20.7645 11.4431 20.5385 11.8574 20.5385H14.1175C14.5318 20.5385 14.7578 20.7645 14.7578 21.204V23.3887C14.7578 23.8407 14.5318 24.0667 14.1175 24.0667H11.8574ZM20.9353 24.0667C20.5209 24.0667 20.2949 23.8407 20.2949 23.3887V21.204C20.2949 20.7645 20.5209 20.5385 20.9353 20.5385H23.1828C23.6096 20.5385 23.8231 20.7645 23.8231 21.204V23.3887C23.8231 23.8407 23.6096 24.0667 23.1828 24.0667H20.9353Z" fill="white"/>
</svg>
