<svg width="18" height="18" viewBox="0 0 18 18" fill="none" xmlns="http://www.w3.org/2000/svg">
<path d="M9.00008 5.66602V8.99935M9.00008 12.3327H9.00842M0.666748 6.10163V11.8971C0.666748 12.1009 0.666748 12.2028 0.689773 12.2987C0.710187 12.3837 0.743857 12.465 0.789548 12.5396C0.841083 12.6237 0.913146 12.6957 1.05727 12.8399L5.15956 16.9422C5.30368 17.0863 5.37575 17.1583 5.45984 17.2099C5.5344 17.2556 5.61569 17.2892 5.70072 17.3097C5.79663 17.3327 5.89854 17.3327 6.10237 17.3327H11.8978C12.1016 17.3327 12.2035 17.3327 12.2994 17.3097C12.3845 17.2892 12.4658 17.2556 12.5403 17.2099C12.6244 17.1583 12.6965 17.0863 12.8406 16.9422L16.9429 12.8399C17.087 12.6957 17.1591 12.6237 17.2106 12.5396C17.2563 12.465 17.29 12.3837 17.3104 12.2987C17.3334 12.2028 17.3334 12.1009 17.3334 11.8971V6.10163C17.3334 5.89781 17.3334 5.7959 17.3104 5.69999C17.29 5.61496 17.2563 5.53367 17.2106 5.45911C17.1591 5.37501 17.087 5.30295 16.9429 5.15882L12.8406 1.05654C12.6965 0.912414 12.6244 0.84035 12.5403 0.788815C12.4658 0.743125 12.3845 0.709455 12.2994 0.689041C12.2035 0.666016 12.1016 0.666016 11.8978 0.666016H6.10237C5.89854 0.666016 5.79663 0.666016 5.70072 0.689041C5.61569 0.709455 5.5344 0.743125 5.45984 0.788815C5.37575 0.84035 5.30368 0.912414 5.15956 1.05654L1.05727 5.15882C0.913146 5.30295 0.841083 5.37501 0.789548 5.45911C0.743857 5.53367 0.710187 5.61496 0.689773 5.69999C0.666748 5.7959 0.666748 5.89781 0.666748 6.10163Z" stroke="#D92D20" stroke-width="1.2" stroke-linecap="round" stroke-linejoin="round"/>
</svg>
