<svg width="34" height="34" viewBox="0 0 34 34" fill="none" xmlns="http://www.w3.org/2000/svg">
<path d="M6.34822 3.1875C4.61147 3.1875 3.1875 4.62353 3.1875 6.375V27.625C3.1875 29.3765 4.61147 30.8125 6.34822 30.8125H27.4197C29.1564 30.8125 30.5804 29.3765 30.5804 27.625V25.5C30.5804 24.9132 30.1087 24.4375 29.5268 24.4375C28.945 24.4375 28.4733 24.9132 28.4733 25.5V27.625C28.4733 28.2227 28.0123 28.6875 27.4197 28.6875H6.34822C5.75559 28.6875 5.29465 28.2227 5.29465 27.625V6.375C5.29465 5.77734 5.75559 5.3125 6.34822 5.3125H27.4197C28.0123 5.3125 28.4733 5.77734 28.4733 6.375V8.5C28.4733 9.0868 28.945 9.5625 29.5268 9.5625C30.1087 9.5625 30.5804 9.0868 30.5804 8.5V6.375C30.5804 4.62353 29.1564 3.1875 27.4197 3.1875H6.34822ZM24.4318 10.3594C24.022 9.94612 23.3582 9.94427 22.9461 10.3552C22.5309 10.7695 22.529 11.4453 22.942 11.8618L26.9834 15.9375H12.6697C12.0878 15.9375 11.6161 16.4132 11.6161 17C11.6161 17.5868 12.0878 18.0625 12.6697 18.0625H26.9834L22.9428 22.1304C22.5288 22.5472 22.5285 23.2236 22.9421 23.6407C23.3557 24.0578 24.0262 24.0576 24.4395 23.6403L30.6682 17.3518C30.8607 17.1575 30.8606 16.8426 30.668 16.6484L24.4318 10.3594Z" fill="#F04438"/>
</svg>
