<svg width="32" height="12" viewBox="0 0 32 12" fill="none" xmlns="http://www.w3.org/2000/svg">
<path d="M15.9874 0.0429688C10.375 0.0555246 5.16434 1.21066 2.56528 3.80971C1.39759 4.9774 0.794915 6.39621 0.87025 8.12891C0.920473 9.14593 1.24692 10.0374 1.8496 10.6526C2.32672 11.1172 2.97962 11.3934 3.74553 11.2679L8.41629 10.4768C9.14452 10.3638 9.64676 10.1378 9.97321 9.81138C10.3875 9.39704 10.5131 8.79436 10.5131 7.97824L10.5257 6.68499C10.5257 6.4841 10.6136 6.33343 10.7266 6.20787C10.8647 6.0572 11.053 5.98186 11.2037 5.95675C12.07 5.75586 13.8404 5.55497 16 5.55497C18.147 5.55497 19.9174 5.70564 20.7838 5.95675C20.9219 5.99442 21.1102 6.06975 21.2483 6.20787C21.3613 6.33343 21.4367 6.4841 21.4492 6.67243L21.4618 7.97824C21.4743 8.79436 21.5999 9.39704 22.0142 9.81138C22.3407 10.1378 22.8429 10.3638 23.5711 10.4768L28.1917 11.2553C28.9827 11.3934 29.6482 11.1046 30.1504 10.6024C30.7531 10.0248 31.0921 9.13337 31.1172 8.1038C31.1674 6.38365 30.5145 4.96484 29.3594 3.80971C26.7603 1.21066 21.6124 0.0429688 15.9874 0.0429688Z" fill="white"/>
</svg>
