<svg width="36" height="36" viewBox="0 0 36 36" fill="none" xmlns="http://www.w3.org/2000/svg">
<path d="M12.2391 14.1863C12.2391 9.20508 17.1811 6.93638 20.82 8.73705C23.1186 9.8745 24.5201 12.6002 24.0589 14.8316C23.7162 16.4895 22.9992 17.4593 21.5526 18.6421L20.9945 19.0848C19.582 20.1929 19.1854 20.7672 19.1854 22.0977C19.1854 22.7425 18.6627 23.2653 18.0179 23.2653C17.3731 23.2653 16.8503 22.7425 16.8503 22.0977C16.8503 20.0034 17.5525 18.8765 19.2594 17.4826L19.8101 17.0463C21.065 16.0595 21.5439 15.4631 21.7721 14.3589C22.0141 13.1882 21.1487 11.505 19.7844 10.8299C17.5714 9.73481 14.5742 11.1107 14.5742 14.1863C14.5742 14.8312 14.0515 15.3539 13.4066 15.3539C12.7618 15.3539 12.2391 14.8312 12.2391 14.1863Z" fill="#202124"/>
<path d="M19.5362 26.4541C19.5362 27.2399 18.8991 27.877 18.1133 27.877C17.3274 27.877 16.6903 27.2399 16.6903 26.4541C16.6903 25.6682 17.3274 25.0311 18.1133 25.0311C18.8991 25.0311 19.5362 25.6682 19.5362 26.4541Z" fill="#202124"/>
<path fill-rule="evenodd" clip-rule="evenodd" d="M18.0004 0.222656C8.18204 0.222656 0.222656 8.18204 0.222656 18.0004C0.222656 27.8188 8.18204 35.7782 18.0004 35.7782C27.8188 35.7782 35.7782 27.8188 35.7782 18.0004C35.7782 8.18204 27.8188 0.222656 18.0004 0.222656ZM18.0004 2.8564C26.3643 2.8564 33.1445 9.63662 33.1445 18.0004C33.1445 26.3643 26.3643 33.1445 18.0004 33.1445C9.63662 33.1445 2.8564 26.3643 2.8564 18.0004C2.8564 9.63662 9.63662 2.8564 18.0004 2.8564Z" fill="#202124"/>
</svg>
