<svg width="16" height="17" viewBox="0 0 16 17" fill="none" xmlns="http://www.w3.org/2000/svg">
<path d="M10.8 14.5H4.62091C4.21704 14.5 4.0151 14.5 3.92159 14.4201C3.84045 14.3508 3.79739 14.2469 3.80577 14.1405C3.81541 14.0179 3.95821 13.8751 4.24379 13.5895L9.91242 7.92091C10.1764 7.65691 10.3084 7.5249 10.4607 7.47544C10.5946 7.43193 10.7388 7.43193 10.8727 7.47544C11.0249 7.5249 11.1569 7.6569 11.4209 7.92091L14 10.5V11.3M10.8 14.5C11.9201 14.5 12.4802 14.5 12.908 14.282C13.2843 14.0903 13.5903 13.7843 13.782 13.408C14 12.9802 14 12.4201 14 11.3M10.8 14.5H5.2C4.0799 14.5 3.51984 14.5 3.09202 14.282C2.71569 14.0903 2.40973 13.7843 2.21799 13.408C2 12.9802 2 12.4201 2 11.3V5.7C2 4.5799 2 4.01984 2.21799 3.59202C2.40973 3.21569 2.71569 2.90973 3.09202 2.71799C3.51984 2.5 4.0799 2.5 5.2 2.5H10.8C11.9201 2.5 12.4802 2.5 12.908 2.71799C13.2843 2.90973 13.5903 3.21569 13.782 3.59202C14 4.01984 14 4.5799 14 5.7V11.3M7 6.16667C7 6.90305 6.40305 7.5 5.66667 7.5C4.93029 7.5 4.33333 6.90305 4.33333 6.16667C4.33333 5.43029 4.93029 4.83333 5.66667 4.83333C6.40305 4.83333 7 5.43029 7 6.16667Z" stroke="#155EEF" stroke-width="1.33333" stroke-linecap="round" stroke-linejoin="round"/>
</svg>
