<svg width="33" height="36" viewBox="0 0 33 36" fill="none" xmlns="http://www.w3.org/2000/svg">
<path d="M12.5 0.5C8.36914 0.5 5 3.86914 5 8C5 12.1309 8.36914 15.5 12.5 15.5C16.6309 15.5 20 12.1309 20 8C20 3.86914 16.6309 0.5 12.5 0.5ZM12.5 15.5C6.02669 15.5 0.689734 20.4415 0.0617828 26.7518C-0.00657827 27.4387 0.559644 28 1.25 28C1.94036 28 2.4918 27.4376 2.57727 26.7525C3.1924 21.8224 7.40484 18 12.5 18C13.4655 18 14.3943 18.1588 15.2768 18.4233C15.7028 18.551 16.1651 18.4532 16.5081 18.1701C17.2146 17.5871 17.189 16.4357 16.3217 16.1412C15.1182 15.7326 13.8392 15.5 12.5 15.5ZM12.5 3C15.2734 3 17.5 5.22656 17.5 8C17.5 10.7734 15.2734 13 12.5 13C9.72656 13 7.5 10.7734 7.5 8C7.5 5.22656 9.72656 3 12.5 3ZM23.75 18C23.0596 18 22.5 18.5596 22.5 19.25V20.6367C21.709 20.8027 20.9766 21.125 20.3223 21.5547L19.3311 20.5635C18.843 20.0754 18.0516 20.0754 17.5635 20.5635C17.0754 21.0516 17.0754 21.843 17.5635 22.3311L18.5547 23.3223C18.1152 23.9766 17.793 24.709 17.627 25.5H16.25C15.5596 25.5 15 26.0596 15 26.75C15 27.4404 15.5596 28 16.25 28H17.627C17.793 28.8008 18.125 29.5234 18.5547 30.1777L17.5635 31.1689C17.0754 31.657 17.0754 32.4484 17.5635 32.9365C18.0516 33.4246 18.843 33.4246 19.3311 32.9365L20.3223 31.9453C20.9766 32.375 21.709 32.6973 22.5 32.8633V34.25C22.5 34.9404 23.0596 35.5 23.75 35.5C24.4404 35.5 25 34.9404 25 34.25V32.873C25.8008 32.707 26.5332 32.3945 27.1875 31.9551L28.1689 32.9365C28.657 33.4246 29.4484 33.4246 29.9365 32.9365C30.4246 32.4484 30.4246 31.657 29.9365 31.1689L28.9551 30.1875C29.3945 29.5332 29.707 28.791 29.873 28H31.25C31.9404 28 32.5 27.4404 32.5 26.75C32.5 26.0596 31.9404 25.5 31.25 25.5H29.873C29.707 24.6992 29.3945 23.9668 28.9551 23.3125L29.9365 22.3311C30.4246 21.843 30.4246 21.0516 29.9365 20.5635C29.4484 20.0754 28.657 20.0754 28.1689 20.5635L27.1875 21.5449C26.5332 21.1055 25.791 20.793 25 20.627V19.25C25 18.5596 24.4404 18 23.75 18ZM23.75 23C25.8398 23 27.5 24.6602 27.5 26.75C27.5 28.8398 25.8398 30.5 23.75 30.5C21.6602 30.5 20 28.8398 20 26.75C20 24.6602 21.6602 23 23.75 23Z" fill="#202124"/>
</svg>
