<svg width="124" height="30" viewBox="0 0 124 30" fill="none" xmlns="http://www.w3.org/2000/svg">
<path d="M39.6987 15.6745C38.2211 14.1953 36.2162 13.3619 34.124 13.3573C32.0316 13.3527 30.023 14.1774 28.5389 15.6502C29.5323 14.6779 30.869 14.1356 32.2598 14.1405C33.6506 14.1455 34.9834 14.6974 35.9698 15.6766C36.956 16.6559 37.5163 17.9837 37.5291 19.3724C37.542 20.7611 37.0065 22.0991 36.0386 23.0964L36.0313 23.1038L35.9959 23.1403L35.9385 23.1964C34.4582 24.6802 32.4482 25.5161 30.3507 25.5201C28.253 25.5241 26.2399 24.6959 24.7539 23.2176C23.2678 21.7394 22.4307 19.7322 22.4267 17.6376C22.4227 15.5431 23.2521 13.5327 24.7325 12.0488C22.7568 14.0191 21.646 16.6926 21.6443 19.4808C21.6426 22.269 22.7502 24.9437 24.7233 26.9165C26.6965 28.8893 29.3737 29.9985 32.1658 30.0002C34.958 30.002 37.6365 28.8959 39.6122 26.9256C39.6255 26.9134 39.639 26.9012 39.6511 26.8878L39.7 26.8404L39.7159 26.8233C39.7378 26.8026 39.7585 26.7807 39.7793 26.7587L39.8073 26.7307C41.242 25.2404 42.0343 23.2477 42.014 21.1805C41.9938 19.1132 41.1624 17.1365 39.6987 15.6745Z" fill="url(#paint0_linear_625_129)"/>
<path d="M37.0236 10.0957C35.0565 9.08805 32.8217 8.72418 30.6359 9.05558C28.4503 9.38688 26.4243 10.3968 24.8453 11.942L24.81 11.9773L24.7734 12.0138L24.7027 12.0844C23.2259 13.5721 22.4013 15.5846 22.4105 17.6793C22.4196 19.774 23.2617 21.7792 24.7515 23.2539C26.2412 24.7286 28.2566 25.552 30.3542 25.5428C32.4519 25.5338 34.46 24.6928 35.9369 23.2052C34.9422 24.1897 33.5971 24.7401 32.1967 24.7355C30.7962 24.7309 29.4548 24.1718 28.4666 23.1809C27.4784 22.1898 26.9242 20.848 26.9256 19.4495C26.927 18.0511 27.4837 16.7102 28.4738 15.7211L28.5067 15.6895C29.9932 14.2542 31.9835 13.4574 34.0512 13.4698C36.1188 13.4821 38.0994 14.3027 39.5686 15.7556C41.0377 17.2084 41.8787 19.1781 41.9111 21.2427C41.9435 23.3072 41.165 25.3023 39.7422 26.8005C40.8943 25.6229 41.7536 24.1917 42.2508 22.622C42.7481 21.0523 42.8692 19.3879 42.6048 17.7629C42.3403 16.1378 41.6976 14.5975 40.7282 13.2658C39.7587 11.9341 38.4898 10.8483 37.0236 10.0957Z" fill="#17A674"/>
<path d="M37.0236 10.0957C35.0565 9.08805 32.8217 8.72418 30.6359 9.05558C28.4503 9.38688 26.4243 10.3968 24.8453 11.942L24.81 11.9773L24.7734 12.0138L24.7027 12.0844C23.2259 13.5721 22.4013 15.5846 22.4105 17.6793C22.4196 19.774 23.2617 21.7792 24.7515 23.2539C26.2412 24.7286 28.2566 25.552 30.3542 25.5428C32.4519 25.5338 34.46 24.6928 35.9369 23.2052C34.9422 24.1897 33.5971 24.7401 32.1967 24.7355C30.7962 24.7309 29.4548 24.1718 28.4666 23.1809C27.4784 22.1898 26.9242 20.848 26.9256 19.4495C26.927 18.0511 27.4837 16.7102 28.4738 15.7211L28.5067 15.6895C29.9932 14.2542 31.9835 13.4574 34.0512 13.4698C36.1188 13.4821 38.0994 14.3027 39.5686 15.7556C41.0377 17.2084 41.8787 19.1781 41.9111 21.2427C41.9435 23.3072 41.165 25.3023 39.7422 26.8005C40.8943 25.6229 41.7536 24.1917 42.2508 22.622C42.7481 21.0523 42.8692 19.3879 42.6048 17.7629C42.3403 16.1378 41.6976 14.5975 40.7282 13.2658C39.7587 11.9341 38.4898 10.8483 37.0236 10.0957Z" fill="url(#paint1_linear_625_129)"/>
<path d="M37.0236 10.0957C35.0565 9.08805 32.8217 8.72418 30.6359 9.05558C28.4503 9.38688 26.4243 10.3968 24.8453 11.942L24.81 11.9773L24.7734 12.0138L24.7027 12.0844C23.2259 13.5721 22.4013 15.5846 22.4105 17.6793C22.4196 19.774 23.2617 21.7792 24.7515 23.2539C26.2412 24.7286 28.2566 25.552 30.3542 25.5428C32.4519 25.5338 34.46 24.6928 35.9369 23.2052C34.9422 24.1897 33.5971 24.7401 32.1967 24.7355C30.7962 24.7309 29.4548 24.1718 28.4666 23.1809C27.4784 22.1898 26.9242 20.848 26.9256 19.4495C26.927 18.0511 27.4837 16.7102 28.4738 15.7211L28.5067 15.6895C29.9932 14.2542 31.9835 13.4574 34.0512 13.4698C36.1188 13.4821 38.0994 14.3027 39.5686 15.7556C41.0377 17.2084 41.8787 19.1781 41.9111 21.2427C41.9435 23.3072 41.165 25.3023 39.7422 26.8005C40.8943 25.6229 41.7536 24.1917 42.2508 22.622C42.7481 21.0523 42.8692 19.3879 42.6048 17.7629C42.3403 16.1378 41.6976 14.5975 40.7282 13.2658C39.7587 11.9341 38.4898 10.8483 37.0236 10.0957Z" fill="url(#paint2_linear_625_129)"/>
<path d="M37.0236 10.0957C35.0565 9.08805 32.8217 8.72418 30.6359 9.05558C28.4503 9.38688 26.4243 10.3968 24.8453 11.942L24.81 11.9773L24.7734 12.0138L24.7027 12.0844C23.2259 13.5721 22.4013 15.5846 22.4105 17.6793C22.4196 19.774 23.2617 21.7792 24.7515 23.2539C26.2412 24.7286 28.2566 25.552 30.3542 25.5428C32.4519 25.5338 34.46 24.6928 35.9369 23.2052C34.9422 24.1897 33.5971 24.7401 32.1967 24.7355C30.7962 24.7309 29.4548 24.1718 28.4666 23.1809C27.4784 22.1898 26.9242 20.848 26.9256 19.4495C26.927 18.0511 27.4837 16.7102 28.4738 15.7211L28.5067 15.6895C29.9932 14.2542 31.9835 13.4574 34.0512 13.4698C36.1188 13.4821 38.0994 14.3027 39.5686 15.7556C41.0377 17.2084 41.8787 19.1781 41.9111 21.2427C41.9435 23.3072 41.165 25.3023 39.7422 26.8005C40.8943 25.6229 41.7536 24.1917 42.2508 22.622C42.7481 21.0523 42.8692 19.3879 42.6048 17.7629C42.3403 16.1378 41.6976 14.5975 40.7282 13.2658C39.7587 11.9341 38.4898 10.8483 37.0236 10.0957Z" fill="url(#paint3_linear_625_129)"/>
<path d="M37.0236 10.0957C35.0565 9.08805 32.8217 8.72418 30.6359 9.05558C28.4503 9.38688 26.4243 10.3968 24.8453 11.942L24.81 11.9773L24.7734 12.0138L24.7027 12.0844C23.2259 13.5721 22.4013 15.5846 22.4105 17.6793C22.4196 19.774 23.2617 21.7792 24.7515 23.2539C26.2412 24.7286 28.2566 25.552 30.3542 25.5428C32.4519 25.5338 34.46 24.6928 35.9369 23.2052C34.9422 24.1897 33.5971 24.7401 32.1967 24.7355C30.7962 24.7309 29.4548 24.1718 28.4666 23.1809C27.4784 22.1898 26.9242 20.848 26.9256 19.4495C26.927 18.0511 27.4837 16.7102 28.4738 15.7211L28.5067 15.6895C29.9932 14.2542 31.9835 13.4574 34.0512 13.4698C36.1188 13.4821 38.0994 14.3027 39.5686 15.7556C41.0377 17.2084 41.8787 19.1781 41.9111 21.2427C41.9435 23.3072 41.165 25.3023 39.7422 26.8005C40.8943 25.6229 41.7536 24.1917 42.2508 22.622C42.7481 21.0523 42.8692 19.3879 42.6048 17.7629C42.3403 16.1378 41.6976 14.5975 40.7282 13.2658C39.7587 11.9341 38.4898 10.8483 37.0236 10.0957Z" fill="url(#paint4_linear_625_129)"/>
<path d="M37.0236 10.0957C35.0565 9.08805 32.8217 8.72418 30.6359 9.05558C28.4503 9.38688 26.4243 10.3968 24.8453 11.942L24.81 11.9773L24.7734 12.0138L24.7027 12.0844C23.2259 13.5721 22.4013 15.5846 22.4105 17.6793C22.4196 19.774 23.2617 21.7792 24.7515 23.2539C26.2412 24.7286 28.2566 25.552 30.3542 25.5428C32.4519 25.5338 34.46 24.6928 35.9369 23.2052C34.9422 24.1897 33.5971 24.7401 32.1967 24.7355C30.7962 24.7309 29.4548 24.1718 28.4666 23.1809C27.4784 22.1898 26.9242 20.848 26.9256 19.4495C26.927 18.0511 27.4837 16.7102 28.4738 15.7211L28.5067 15.6895C29.9932 14.2542 31.9835 13.4574 34.0512 13.4698C36.1188 13.4821 38.0994 14.3027 39.5686 15.7556C41.0377 17.2084 41.8787 19.1781 41.9111 21.2427C41.9435 23.3072 41.165 25.3023 39.7422 26.8005C40.8943 25.6229 41.7536 24.1917 42.2508 22.622C42.7481 21.0523 42.8692 19.3879 42.6048 17.7629C42.3403 16.1378 41.6976 14.5975 40.7282 13.2658C39.7587 11.9341 38.4898 10.8483 37.0236 10.0957Z" fill="url(#paint5_linear_625_129)"/>
<path d="M37.0236 10.0957C35.0565 9.08805 32.8217 8.72418 30.6359 9.05558C28.4503 9.38688 26.4243 10.3968 24.8453 11.942L24.81 11.9773L24.7734 12.0138L24.7027 12.0844C23.2259 13.5721 22.4013 15.5846 22.4105 17.6793C22.4196 19.774 23.2617 21.7792 24.7515 23.2539C26.2412 24.7286 28.2566 25.552 30.3542 25.5428C32.4519 25.5338 34.46 24.6928 35.9369 23.2052C34.9422 24.1897 33.5971 24.7401 32.1967 24.7355C30.7962 24.7309 29.4548 24.1718 28.4666 23.1809C27.4784 22.1898 26.9242 20.848 26.9256 19.4495C26.927 18.0511 27.4837 16.7102 28.4738 15.7211L28.5067 15.6895C29.9932 14.2542 31.9835 13.4574 34.0512 13.4698C36.1188 13.4821 38.0994 14.3027 39.5686 15.7556C41.0377 17.2084 41.8787 19.1781 41.9111 21.2427C41.9435 23.3072 41.165 25.3023 39.7422 26.8005C40.8943 25.6229 41.7536 24.1917 42.2508 22.622C42.7481 21.0523 42.8692 19.3879 42.6048 17.7629C42.3403 16.1378 41.6976 14.5975 40.7282 13.2658C39.7587 11.9341 38.4898 10.8483 37.0236 10.0957Z" fill="url(#paint6_linear_625_129)"/>
<path d="M104.818 12.4652V17.4479C103.819 18.7814 102.492 19.2372 101.162 19.2372C98.7979 19.2372 97.1494 17.2491 97.1494 14.9747C97.1494 12.664 98.7979 10.6382 101.162 10.6382C102.492 10.6382 103.819 11.1014 104.818 12.4652Z" fill="#111827"/>
<path d="M118.931 0.0073243H91.6819C91.0514 0.00720998 90.4269 0.131931 89.8443 0.3744C89.2616 0.616984 88.7322 0.972515 88.2862 1.42087C87.8403 1.86911 87.4866 2.40138 87.2452 2.98715C87.0038 3.57291 86.8796 4.20075 86.8796 4.83476V20.2799C90.4847 20.2944 93.3011 23.0597 93.3011 26.6045C93.307 27.7708 92.9916 28.9159 92.3897 29.913H118.931C120.204 29.912 121.424 29.403 122.325 28.498C123.224 27.5928 123.731 26.3655 123.732 25.0855V4.83968C123.733 4.20521 123.609 3.57692 123.368 2.99058C123.127 2.40424 122.774 1.8714 122.328 1.42259C121.882 0.973772 121.352 0.617785 120.769 0.374972C120.187 0.132046 119.562 0.00720998 118.931 0.0073243ZM109.32 23.0827H104.818V21.8425C103.622 22.6269 102.166 23.0827 100.418 23.0827C96.1413 23.0827 92.6766 19.5015 92.6766 14.9747C92.6766 10.3824 96.1413 6.8303 100.418 6.8303C102.162 6.8303 103.622 7.28609 104.818 8.07054V6.8303H109.32V23.0827ZM117.938 23.0827H113.436V6.8303H117.944L117.938 23.0827Z" fill="#111827"/>
<path d="M13.7815 17.6454L21.867 8.98817H14.3507L6.30979 17.6891V0H0.268066V29.9202H6.30979V25.591L9.65932 22.0546L15.1754 29.9202H22.7785L13.7815 17.6454Z" fill="#111827"/>
<path d="M50.7412 11.6443V8.97729H44.7935V29.9202H50.7412V17.6235C52.4558 15.7311 54.7201 14.7843 57.9284 14.6595V8.98095C54.8925 8.98095 52.5799 9.92648 50.7412 11.6443Z" fill="#111827"/>
<path d="M78.7099 18.9513C78.7099 12.8036 74.4996 8.78223 68.8448 8.78223C62.6054 8.78223 58.3552 13.2218 58.3552 19.3623C58.3552 25.3026 62.6464 29.9095 69.0016 29.9095C73.6714 29.9095 77.3861 27.2897 78.458 23.4672H72.4789C71.8575 24.4653 70.741 24.9644 69.1294 24.9644C65.9946 24.9644 64.4669 23.1374 64.0136 20.8122H78.5858C78.6759 20.1961 78.7174 19.5739 78.7099 18.9513ZM64.0498 17.4104C64.5888 15.1736 66.114 13.5516 68.8798 13.5516C71.1936 13.5516 72.6815 14.9239 73.0094 17.4104H64.0498Z" fill="#111827"/>
<path d="M86.8601 23.3169C85.007 23.3169 83.4746 24.7328 83.4746 26.5974C83.4746 28.5044 85.007 29.9204 86.8601 29.9204C88.7579 29.9204 90.2904 28.5044 90.2904 26.5974C90.2904 24.7316 88.7579 23.3169 86.8601 23.3169Z" fill="#111827"/>
<path d="M28.4551 15.7326L28.4806 15.7079C28.4738 15.7137 28.4675 15.72 28.4617 15.7269L28.4551 15.7326Z" fill="url(#paint7_linear_625_129)"/>
<path d="M39.5117 26.8459L39.524 26.8325L39.4834 26.8734L39.5117 26.8459Z" fill="url(#paint8_linear_625_129)"/>
<defs>
<linearGradient id="paint0_linear_625_129" x1="23.7088" y1="25.8533" x2="41.2833" y2="14.1968" gradientUnits="userSpaceOnUse">
<stop stop-color="#8C8EFF"/>
<stop offset="0.549246" stop-color="#4B4EFC"/>
<stop offset="1" stop-color="#3D40F2"/>
</linearGradient>
<linearGradient id="paint1_linear_625_129" x1="35.4896" y1="16.513" x2="43.4132" y2="11.4662" gradientUnits="userSpaceOnUse">
<stop stop-color="#BFC527" stop-opacity="0"/>
<stop offset="1" stop-color="#BFC527"/>
</linearGradient>
<linearGradient id="paint2_linear_625_129" x1="33.3722" y1="13.6687" x2="31.4914" y2="20.3968" gradientUnits="userSpaceOnUse">
<stop stop-color="#FEC412"/>
<stop offset="1" stop-color="#FEC412" stop-opacity="0"/>
</linearGradient>
<linearGradient id="paint3_linear_625_129" x1="27.0968" y1="18.8962" x2="37.7226" y2="19.2047" gradientUnits="userSpaceOnUse">
<stop stop-color="#E05063"/>
<stop offset="1" stop-color="#E05063" stop-opacity="0"/>
</linearGradient>
<linearGradient id="paint4_linear_625_129" x1="27.4048" y1="21.5484" x2="32.9759" y2="14.2366" gradientUnits="userSpaceOnUse">
<stop stop-color="#AF348D"/>
<stop offset="1" stop-color="#AF348D" stop-opacity="0"/>
</linearGradient>
<linearGradient id="paint5_linear_625_129" x1="33.4877" y1="24.5465" x2="30.532" y2="14.4732" gradientUnits="userSpaceOnUse">
<stop stop-color="#3596D5"/>
<stop offset="1" stop-color="#3596D5" stop-opacity="0"/>
</linearGradient>
<linearGradient id="paint6_linear_625_129" x1="40.6486" y1="25.469" x2="34.7657" y2="20.7319" gradientUnits="userSpaceOnUse">
<stop stop-color="#17A674"/>
<stop offset="1" stop-color="#17A674" stop-opacity="0"/>
</linearGradient>
<linearGradient id="paint7_linear_625_129" x1="32.2329" y1="21.0245" x2="34.3312" y2="18.8575" gradientUnits="userSpaceOnUse">
<stop stop-color="#009DAB" stop-opacity="0"/>
<stop offset="1" stop-color="#009DAB"/>
</linearGradient>
<linearGradient id="paint8_linear_625_129" x1="45.1583" y1="20.9699" x2="35.3481" y2="31.0631" gradientUnits="userSpaceOnUse">
<stop offset="0.24" stop-color="#009DAB" stop-opacity="0"/>
<stop offset="1" stop-color="#009DAB"/>
</linearGradient>
</defs>
</svg>
