<svg width="34" height="34" viewBox="0 0 34 34" fill="none" xmlns="http://www.w3.org/2000/svg">
<path d="M4.4685 0.75C2.42526 0.75 0.75 2.43945 0.75 4.5V29.5C0.75 31.5605 2.42526 33.25 4.4685 33.25H29.2585C31.3017 33.25 32.977 31.5605 32.977 29.5V27C32.977 26.3096 32.422 25.75 31.7375 25.75C31.0529 25.75 30.498 26.3096 30.498 27V29.5C30.498 30.2031 29.9557 30.75 29.2585 30.75H4.4685C3.77128 30.75 3.229 30.2031 3.229 29.5V4.5C3.229 3.79688 3.77128 3.25 4.4685 3.25H29.2585C29.9557 3.25 30.498 3.79688 30.498 4.5V7C30.498 7.69036 31.0529 8.25 31.7375 8.25C32.422 8.25 32.977 7.69036 32.977 7V4.5C32.977 2.43945 31.3017 0.75 29.2585 0.75H4.4685ZM25.7433 9.18752C25.2612 8.70132 24.4802 8.69914 23.9955 9.18264C23.5069 9.66994 23.5047 10.4651 23.9906 10.9551L28.7452 15.75H11.9055C11.2209 15.75 10.666 16.3096 10.666 17C10.666 17.6904 11.2209 18.25 11.9055 18.25H28.7452L23.9915 23.0358C23.5044 23.5261 23.5041 24.3219 23.9907 24.8126C24.4773 25.3033 25.2661 25.3031 25.7524 24.8121L33.0802 17.4139C33.3067 17.1853 33.3066 16.8148 33.08 16.5863L25.7433 9.18752Z" fill="#202124"/>
</svg>
