<svg width="22" height="20" viewBox="0 0 22 20" fill="none" xmlns="http://www.w3.org/2000/svg">
<path d="M0 10C0 4.51306 4.29268 0 9.66667 0C11.4333 0 13.0905 0.491122 14.5149 1.34682C14.9884 1.63122 15.1416 2.24556 14.8572 2.71899C14.5728 3.19242 13.9585 3.34566 13.4851 3.06126C12.36 2.38543 11.0572 2 9.66667 2C5.46772 2 2 5.54581 2 10C2 14.4542 5.46772 18 9.66667 18C11.0572 18 12.36 17.6146 13.4851 16.9387C13.9585 16.6543 14.5728 16.8076 14.8572 17.281C15.1416 17.7544 14.9884 18.3688 14.5149 18.6532C13.0905 19.5089 11.4333 20 9.66667 20C4.29268 20 0 15.4869 0 10Z" fill="#2970FF"/>
<path d="M16.2929 5.29289C16.6834 4.90237 17.3166 4.90237 17.7071 5.29289L21.7071 9.29289C22.0976 9.68342 22.0976 10.3166 21.7071 10.7071L17.7071 14.7071C17.3166 15.0976 16.6834 15.0976 16.2929 14.7071C15.9024 14.3166 15.9024 13.6834 16.2929 13.2929L18.5858 11H8C7.44772 11 7 10.5523 7 10C7 9.44771 7.44772 9 8 9H18.5858L16.2929 6.70711C15.9024 6.31658 15.9024 5.68342 16.2929 5.29289Z" fill="#2970FF"/>
</svg>
