<svg width="23" height="28" viewBox="0 0 23 28" fill="none" xmlns="http://www.w3.org/2000/svg">
<path d="M11 0.00390625C8.62695 0.00390625 6.91936 1.66127 6.6808 4.10965V4.51144L15.3945 13.2252C15.4196 13.1373 15.4196 13.0368 15.4196 12.9364V4.69978C15.4196 1.91239 13.5488 0.00390625 11 0.00390625ZM20.6931 23.5711C21.0949 23.9604 21.7352 23.9604 22.1119 23.5711C22.4886 23.1694 22.5011 22.5416 22.1119 22.1523L1.98493 2.0505C1.5957 1.66127 0.955353 1.64872 0.566123 2.0505C0.176893 2.42718 0.176893 3.08008 0.566123 3.45675L20.6931 23.5711ZM1.39481 13.3884C1.39481 18.5865 4.86021 22.1398 9.8323 22.6169V25.1657H5.22433C4.55887 25.1657 4.00641 25.6931 4.00641 26.3585C4.00641 27.0114 4.55887 27.5513 5.22433 27.5513H16.7757C17.4411 27.5513 17.9936 27.0114 17.9936 26.3585C17.9936 25.6931 17.4411 25.1657 16.7757 25.1657H12.1677V22.6169C13.6869 22.4662 15.0555 22.0393 16.2232 21.3488L14.5031 19.6161C13.4986 20.1183 12.3184 20.3945 11 20.3945C6.71847 20.3945 3.81808 17.582 3.81808 13.3005V10.9149C3.81808 10.2494 3.26562 9.73465 2.60016 9.73465C1.93471 9.73465 1.39481 10.2494 1.39481 10.9149V13.3884ZM17.8052 15.6359L19.7263 17.5444C20.2913 16.339 20.5926 14.9328 20.5926 13.3884V10.9149C20.5926 10.2494 20.0527 9.73465 19.3873 9.73465C18.7218 9.73465 18.1819 10.2494 18.1819 10.9149V13.3005C18.1819 14.1543 18.0564 14.9328 17.8052 15.6359ZM11 17.7955C11.5022 17.7955 11.9919 17.7076 12.4314 17.5444L6.55524 11.6808V13.0996C6.55524 15.887 8.45117 17.7955 11 17.7955Z" fill="white"/>
</svg>
