<svg width="40" height="40" viewBox="0 0 40 40" fill="none" xmlns="http://www.w3.org/2000/svg">
<path fill-rule="evenodd" clip-rule="evenodd" d="M20 13.9876C16.6767 13.9876 13.98 16.6842 13.98 20.0081C13.98 23.332 16.6767 26.0287 20 26.0287C23.3232 26.0287 26.0199 23.332 26.0199 20.0081C26.0199 16.6842 23.3232 13.9876 20 13.9876ZM20 16.6229C21.869 16.6229 23.3862 18.14 23.3862 20.0081C23.3862 21.8762 21.869 23.3933 20 23.3933C18.1309 23.3933 16.6137 21.8762 16.6137 20.0081C16.6137 18.14 18.1309 16.6229 20 16.6229Z" fill="#202124"/>
<path fill-rule="evenodd" clip-rule="evenodd" d="M23.6566 2.22266H16.3409C15.7117 2.22266 15.1704 2.66802 15.0489 3.28573L14.8466 4.31331L14.2148 7.37968L14.1149 7.42431C13.344 7.77716 12.6014 8.20578 11.8864 8.70533L11.758 8.797L8.62921 7.75071L7.58566 7.4267C6.99934 7.24484 6.36521 7.49244 6.05696 8.0236L5.53022 8.93126L2.9357 13.2714L2.4003 14.1938C2.08384 14.7391 2.19784 15.4323 2.67225 15.8474L3.44356 16.5223L5.81316 18.5395L5.75289 18.9444C5.70149 19.3279 5.67665 19.6543 5.67665 20.0004L5.67798 20.1511C5.68413 20.4891 5.71216 20.7893 5.77275 21.1991L5.81316 21.4606L3.45711 23.4669L2.67225 24.1535C2.19784 24.5686 2.08384 25.2618 2.4003 25.8071L2.92705 26.7147L5.53887 31.0843L6.05622 31.9783C6.36467 32.5112 7.00085 32.7593 7.58831 32.5757L8.60418 32.2582L11.758 31.2031L11.8864 31.2955C12.6014 31.7951 13.344 32.2237 14.1149 32.5766L14.2148 32.6204L14.8489 35.6987L15.0489 36.7151C15.1704 37.3328 15.7117 37.7782 16.3409 37.7782H23.6566C24.2847 37.7782 24.8254 37.3344 24.9481 36.718L25.1527 35.6904L25.7818 32.6204L25.8826 32.5766C26.6535 32.2237 27.3961 31.7951 28.1111 31.2955L28.2386 31.2031L31.3683 32.2502L32.4092 32.5757C32.9958 32.759 33.631 32.512 33.94 31.9805L34.4691 31.0705L37.0621 26.729L37.5983 25.8093C37.9167 25.2631 37.8025 24.5677 37.3261 24.1522L36.5525 23.4773L34.1851 21.4614L34.2106 21.2996C34.2906 20.7787 34.3209 20.4337 34.3209 20.0004L34.3197 19.8589C34.3135 19.4884 34.2817 19.1643 34.2106 18.7012L34.1843 18.5387L36.5404 16.534L37.3261 15.8487C37.8025 15.4332 37.9167 14.7378 37.5983 14.1916L37.0692 13.2839L34.4613 8.91702L33.9393 8.02139C33.6305 7.49166 32.9973 7.24512 32.4119 7.4267L31.396 7.74179L28.2386 8.797L28.1111 8.70533C27.3961 8.20578 26.6535 7.77716 25.8826 7.42431L25.7818 7.37968L25.1512 4.30296L24.9481 3.28288C24.8254 2.66651 24.2847 2.22266 23.6566 2.22266ZM17.423 4.85717H22.5761L23.3425 8.59281C23.433 9.03388 23.7423 9.39819 24.1627 9.55883C25.2231 9.964 26.2319 10.5495 27.1923 11.3026L27.3 11.3787C27.6325 11.5894 28.0446 11.6415 28.4222 11.5151L32.1917 10.2538L34.7736 14.5774L31.9085 17.0169C31.5561 17.3169 31.3869 17.7799 31.4628 18.2365L31.5987 19.0463C31.6643 19.4672 31.6871 19.7166 31.6871 20.0004L31.6835 20.1868C31.6749 20.4036 31.6497 20.6272 31.5987 20.9545L31.4628 21.7644L31.4481 21.8889C31.4192 22.3039 31.5882 22.7113 31.9085 22.984L34.7736 25.4227L32.1909 29.7463L28.4222 28.4857C28.0026 28.3454 27.5406 28.4252 27.1923 28.6983C26.2319 29.4514 25.2231 30.0369 24.1627 30.442L24.0509 30.4908C23.6879 30.6695 23.4248 31.0071 23.3425 31.4081L22.5761 35.1421H17.423L16.6549 31.4073C16.5642 30.9665 16.255 30.6026 15.8348 30.442C14.7745 30.0369 13.7656 29.4514 12.8052 28.6983L12.6975 28.6222C12.365 28.4114 11.953 28.3594 11.5753 28.4857L7.80739 29.7454L5.22304 25.4227L8.08902 22.984C8.44015 22.6851 8.6095 22.2242 8.53554 21.7689L8.41405 21.0442C8.33666 20.5629 8.31039 20.3009 8.31039 20.0004C8.31039 19.6894 8.34531 19.3696 8.42515 18.8861L8.53421 18.2399L8.54922 18.1151C8.57919 17.6991 8.41022 17.2903 8.08902 17.0169L5.22304 14.5774L7.80657 10.2538L11.5753 11.5151C11.9949 11.6555 12.457 11.5757 12.8052 11.3026C13.7656 10.5495 14.7745 9.964 15.8348 9.55883L15.9466 9.5101C16.3094 9.33148 16.5724 8.99426 16.6549 8.59358L17.423 4.85717Z" fill="#202124"/>
</svg>
