<svg width="36" height="27" viewBox="0 0 36 27" fill="none" xmlns="http://www.w3.org/2000/svg">
<path d="M30.38 25.8748C30.9325 26.239 31.6733 26.0757 32.075 25.4731C34.2849 22.1583 35.6158 18.04 35.6158 13.5199C35.6158 8.9873 34.2598 4.88155 32.075 1.55426C31.6733 0.939024 30.9325 0.788354 30.38 1.15247C29.7773 1.5417 29.6894 2.2825 30.1038 2.94795C32.0248 5.87346 33.2176 9.50208 33.2176 13.5199C33.2176 17.5127 32.0248 21.1664 30.1038 24.0794C29.6894 24.7448 29.7773 25.4856 30.38 25.8748ZM14.1328 24.7699C15.0745 24.7699 15.7651 24.0668 15.7651 23.1377V3.96497C15.7651 3.02329 15.0745 2.26994 14.1077 2.26994C13.4673 2.26994 13.0028 2.53361 12.3248 3.19907L7.07644 8.10839C7.00111 8.18372 6.90066 8.22139 6.78766 8.22139H3.23437C1.37611 8.22139 0.371643 9.25097 0.371643 11.1971V15.8679C0.371643 17.814 1.37611 18.8436 3.23437 18.8436H6.78766C6.90066 18.8436 6.98855 18.8813 7.07644 18.9566L12.3248 23.9036C12.9526 24.5063 13.4799 24.7699 14.1328 24.7699ZM25.2949 22.4722C25.8725 22.8238 26.5756 22.6982 26.9774 22.1081C28.6096 19.7978 29.5639 16.6966 29.5639 13.5074C29.5639 10.3182 28.6222 7.20437 26.9774 4.90666C26.5756 4.31654 25.8725 4.17842 25.2949 4.54254C24.6922 4.91921 24.6043 5.67256 25.0564 6.33802C26.3873 8.29673 27.1532 10.8456 27.1532 13.5074C27.1532 16.1567 26.3747 18.7055 25.0564 20.6767C24.6169 21.3422 24.6922 22.083 25.2949 22.4722ZM20.2349 19.1073C20.7748 19.4588 21.4779 19.3333 21.8672 18.7808C22.8842 17.4248 23.4869 15.5038 23.4869 13.5074C23.4869 11.511 22.8842 9.60253 21.8672 8.23395C21.4779 7.68149 20.7748 7.55593 20.2349 7.92005C19.6197 8.32184 19.5067 9.06263 19.9964 9.79087C20.6869 10.7828 21.0762 12.1137 21.0762 13.5074C21.0762 14.9011 20.6869 16.2194 19.9964 17.2239C19.5067 17.9521 19.6197 18.6929 20.2349 19.1073Z" fill="white"/>
</svg>
