<svg width="25" height="25" viewBox="0 0 25 25" fill="none" xmlns="http://www.w3.org/2000/svg">
<path d="M18.2277 14.5831V1.96456C18.2277 1.02288 17.5371 0.269531 16.5703 0.269531C15.93 0.269531 15.478 0.545759 14.7874 1.19866L9.91574 5.70619C9.86552 5.75642 9.80274 5.79408 9.73996 5.79408H9.42607L18.2277 14.5831ZM22.6222 23.9749C23.0114 24.3516 23.6518 24.3641 24.0285 23.9749C24.4177 23.5731 24.4177 22.9453 24.0285 22.5561L2.0307 0.570871C1.64147 0.181641 1.00112 0.169085 0.599339 0.570871C0.222665 0.947545 0.222665 1.60045 0.599339 1.97712L22.6222 23.9749ZM5.63422 16.8432H9.17495C9.28795 16.8432 9.3884 16.8809 9.46374 16.9562L14.7874 21.9032C15.4152 22.5059 15.9425 22.7695 16.5829 22.7695C17.3111 22.7695 17.8636 22.3929 18.1147 21.6521L3.48717 7.03711C3.06028 7.51423 2.83427 8.21736 2.83427 9.14648V13.9177C2.83427 15.8764 3.78851 16.8432 5.63422 16.8432Z" fill="white"/>
</svg>
