<svg width="21" height="29" viewBox="0 0 21 29" fill="none" xmlns="http://www.w3.org/2000/svg">
<path d="M10.5 18.7958C13.0488 18.7958 14.9322 16.8873 14.9322 14.0999V5.63728C14.9322 2.84989 13.0488 0.941406 10.5 0.941406C7.95119 0.941406 6.06781 2.84989 6.06781 5.63728V14.0999C6.06781 16.8873 7.95119 18.7958 10.5 18.7958ZM0.907379 14.3887C0.907379 19.5868 4.36023 23.1401 9.33232 23.6172V26.166H4.72434C4.05889 26.166 3.50643 26.6934 3.50643 27.3588C3.50643 28.0117 4.05889 28.5516 4.72434 28.5516H16.2757C16.9411 28.5516 17.4936 28.0117 17.4936 27.3588C17.4936 26.6934 16.9411 26.166 16.2757 26.166H11.6677V23.6172C16.6398 23.1401 20.0926 19.5868 20.0926 14.3887V11.9152C20.0926 11.2497 19.5653 10.7349 18.8998 10.7349C18.2344 10.7349 17.6819 11.2497 17.6819 11.9152V14.3008C17.6819 18.5823 14.7815 21.3948 10.5 21.3948C6.21848 21.3948 3.31809 18.5823 3.31809 14.3008V11.9152C3.31809 11.2497 2.77819 10.7349 2.11274 10.7349C1.44728 10.7349 0.907379 11.2497 0.907379 11.9152V14.3887Z" fill="white"/>
</svg>
