<svg width="100" height="100" viewBox="0 0 100 100" fill="none" xmlns="http://www.w3.org/2000/svg">
<path d="M21.875 12.5C16.7342 12.5 12.5 16.7342 12.5 21.875V37.5H18.75V21.875C18.75 20.1158 20.1158 18.75 21.875 18.75H78.125C79.8842 18.75 81.25 20.1158 81.25 21.875V37.5H87.5V21.875C87.5 16.7342 83.2658 12.5 78.125 12.5H21.875ZM12.5 37.5H6.25V50H12.5V37.5ZM34.79 25C30.4088 25 26.5058 27.881 25.2808 32.0435L20.2393 50.1465C15.8518 50.9215 12.5 54.7625 12.5 59.375V78.125V81.25C12.5 84.7 15.3 87.5 18.75 87.5H25V81.25H38.8306C38.2618 79.2312 37.8524 77.15 37.6587 75H18.75V59.375C18.75 57.65 20.1562 56.25 21.875 56.25H25.0366L26.77 50H45.3613C47.3238 47.6188 49.6172 45.525 52.1484 43.75H28.5034L31.2866 33.7524C31.7241 32.2774 33.165 31.25 34.79 31.25H50H65.21C66.8412 31.25 68.2821 32.2846 68.7134 33.7158L69.7998 37.6099C70.4873 37.5661 71.1687 37.5 71.875 37.5C73.3875 37.5 74.8681 37.6299 76.3306 37.8174L74.707 31.9824C73.4945 27.8699 69.5912 25 65.21 25H50H34.79ZM71.875 43.75C56.379 43.75 43.75 56.379 43.75 71.875C43.75 87.371 56.379 100 71.875 100C87.371 100 100 87.371 100 71.875C100 56.379 87.371 43.75 71.875 43.75ZM71.875 50C83.9932 50 93.75 59.7568 93.75 71.875C93.75 83.9932 83.9932 93.75 71.875 93.75C59.7568 93.75 50 83.9932 50 71.875C50 59.7568 59.7568 50 71.875 50ZM81.2622 61.6333L69.751 73.1445L62.5854 65.979L58.1665 70.3979L69.751 81.9824L85.6812 66.0522L81.2622 61.6333ZM28.1494 62.5C27.7406 62.5 27.3358 62.5804 26.9582 62.7369C26.5805 62.8933 26.2373 63.1226 25.9482 63.4116C25.6592 63.7007 25.4299 64.0439 25.2735 64.4215C25.1171 64.7992 25.0366 65.204 25.0366 65.6128C25.0366 66.0216 25.1171 66.4264 25.2735 66.8041C25.4299 67.1817 25.6592 67.5249 25.9482 67.814C26.2373 68.103 26.5805 68.3323 26.9582 68.4887C27.3358 68.6451 27.7406 68.7256 28.1494 68.7256C28.5582 68.7256 28.963 68.6451 29.3407 68.4887C29.7184 68.3323 30.0615 68.103 30.3506 67.814C30.6396 67.5249 30.8689 67.1817 31.0253 66.8041C31.1818 66.4264 31.2622 66.0216 31.2622 65.6128C31.2622 65.204 31.1818 64.7992 31.0253 64.4215C30.8689 64.0439 30.6396 63.7007 30.3506 63.4116C30.0615 63.1226 29.7184 62.8933 29.3407 62.7369C28.963 62.5804 28.5582 62.5 28.1494 62.5Z" fill="#101828"/>
</svg>
