<svg width="100" height="100" viewBox="0 0 100 100" fill="none" xmlns="http://www.w3.org/2000/svg">
<path d="M46.6346 6.25C14.716 6.25 13.0859 27.2574 12.9808 43.9528C9.08954 45.4778 6.25 49.2112 6.25 53.3654C6.25 58.729 10.2727 66.8269 16.3462 66.8269C16.872 66.8269 17.4241 66.7743 17.9763 66.7218C22.9192 82.05 35.1187 93.75 46.6346 93.75C52.1297 93.75 57.7825 91.0156 62.7517 86.4934C60.7272 86.8089 58.729 87.0192 56.7308 87.0192H46.6346C38.7207 87.0192 27.678 77.2123 23.8131 62.6202L22.7088 58.7816L19.5538 59.5703C17.6082 60.0699 16.6091 60.0962 16.3462 60.0962C15.2682 59.9647 12.9808 56.126 12.9808 53.3654C12.9808 51.7353 14.6898 50.1052 16.5565 50L19.7115 49.7897V46.6346C19.7115 25.7061 21.5257 12.9808 46.6346 12.9808C47.4234 12.9808 56.8622 13.0071 63.0935 13.0334L60.806 17.6871C60.4642 18.5021 59.2285 21.2365 54.9429 24.7596C50 28.8612 41.4288 33.1731 26.4423 33.1731V39.9038C42.7434 39.9038 53.0762 35.0398 59.2548 29.9654C62.5413 27.2311 64.5395 24.5493 65.8015 22.4722C72.7163 25.9953 73.5577 32.989 73.5577 46.6346V63.2249C72.7952 71.6909 61.1741 73.5577 56.7308 73.5577H53.3654C53.3654 69.8505 50.3418 66.8269 46.6346 66.8269C42.9274 66.8269 39.9038 69.8505 39.9038 73.5577C39.9038 77.2649 42.9274 80.2885 46.6346 80.2885H56.7308C66.0119 80.2885 76.2395 76.3447 79.3682 67.6683H83.6538C89.2015 67.6683 93.75 63.1197 93.75 57.5721V50C93.75 44.4524 89.2015 39.9038 83.6538 39.9038H80.157C79.8152 30.2547 78.1588 21.1839 68.9303 16.4513L73.9258 6.35517L68.5096 6.32888C68.5096 6.32888 47.8178 6.25 46.6346 6.25ZM36.5385 46.6346C34.6717 46.6346 33.1731 48.1333 33.1731 50C33.1731 51.8667 34.6717 53.3654 36.5385 53.3654C38.4052 53.3654 39.9038 51.8667 39.9038 50C39.9038 48.1333 38.4052 46.6346 36.5385 46.6346ZM56.7308 46.6346C54.864 46.6346 53.3654 48.1333 53.3654 50C53.3654 51.8667 54.864 53.3654 56.7308 53.3654C58.5975 53.3654 60.0962 51.8667 60.0962 50C60.0962 48.1333 58.5975 46.6346 56.7308 46.6346ZM80.2885 46.6346H83.6538C85.5469 46.6346 87.0192 48.107 87.0192 50V57.5721C87.0192 59.4651 85.5469 60.9375 83.6538 60.9375H80.2885V46.6346Z" fill="#101828"/>
</svg>
